<?xml version="1.0" encoding="UTF-8"?>
<svg xmlns="http://www.w3.org/2000/svg" 
     width="64" height="64" 
     viewBox="0 0 2048 2048"
     preserveAspectRatio="xMidYMid meet">

<g transform="translate(0,2048) scale(0.1,-0.1)"
fill="#FFFFFF" stroke="#0059B3" stroke-width="30" stroke-linejoin="round" stroke-linecap="round">
<path d="M3494 13464 c-54 -19 -110 -76 -143 -144 -26 -54 -26 -58 -25 -265 0
-218 12 -328 59 -575 34 -184 104 -372 202 -548 38 -69 38 -70 8 -181 -16 -57
-16 -76 -6 -165 22 -181 81 -323 232 -553 79 -120 265 -315 335 -351 l40 -21
-4 -60 c-9 -124 65 -286 213 -467 117 -145 336 -329 440 -372 24 -10 37 -27
60 -80 47 -109 92 -170 214 -293 137 -137 247 -220 364 -274 67 -31 90 -48
106 -75 97 -167 337 -367 578 -481 148 -70 133 -65 278 -110 215 -67 548 -117
712 -107 l54 3 0 -315 c-1 -349 3 -383 59 -471 18 -27 51 -66 75 -87 55 -48
159 -102 198 -102 27 0 366 79 492 115 57 16 172 44 330 79 192 44 1100 269
1151 286 17 5 40 10 52 10 11 0 23 4 27 9 3 5 31 15 63 21 31 6 68 15 82 19
14 5 50 14 80 20 111 23 316 73 361 87 36 12 54 13 90 4 24 -6 100 -24 169
-40 69 -16 206 -50 305 -76 99 -25 243 -61 320 -79 140 -33 346 -84 525 -130
181 -47 465 -117 506 -125 23 -5 77 -18 120 -28 44 -11 106 -25 139 -32 33 -7
71 -16 85 -21 14 -5 63 -18 110 -28 452 -101 417 -97 495 -61 77 34 193 170
216 250 9 33 12 134 10 366 l-2 321 148 7 c289 14 504 55 756 146 32 11 66 24
75 29 9 5 44 21 77 36 77 36 194 107 267 162 83 63 222 207 275 286 42 61 55
73 110 98 115 52 262 157 373 269 122 121 190 212 226 302 29 70 49 98 73 98
9 0 41 20 72 43 31 23 83 62 115 86 134 101 320 321 398 471 43 83 68 183 60
241 l-6 45 58 38 c113 75 273 252 363 400 190 314 250 594 154 724 l-24 32 59
98 c32 53 71 129 86 167 16 39 32 79 37 90 48 114 119 420 139 600 15 139 13
378 -3 440 -41 150 -128 235 -241 235 -83 0 -133 -37 -238 -176 -85 -114 -143
-178 -231 -252 -136 -115 -397 -276 -497 -307 -14 -4 -67 -25 -118 -47 -266
-113 -562 -202 -967 -289 -251 -54 -518 -120 -606 -148 -30 -11 -96 -38 -145
-61 -49 -23 -125 -58 -169 -78 -169 -74 -502 -339 -620 -492 -26 -33 -49 -60
-52 -60 -3 0 -4 283 0 629 4 511 3 638 -8 674 -36 120 -134 209 -261 235 -67
15 -140 4 -399 -59 -115 -28 -302 -74 -415 -101 -113 -27 -331 -80 -485 -118
-154 -37 -296 -71 -315 -75 -89 -17 -741 -183 -965 -245 -172 -48 -208 -49
-340 -7 -44 14 -114 33 -155 43 -41 9 -163 39 -270 66 -278 70 -961 240 -1115
278 -71 17 -209 51 -305 75 -96 24 -202 48 -235 55 -78 15 -236 56 -300 78
-30 10 -84 16 -135 17 -77 0 -91 -3 -153 -34 -91 -46 -150 -112 -177 -198 -19
-62 -20 -92 -20 -684 0 -349 -4 -619 -9 -619 -5 0 -41 40 -80 89 -39 49 -107
123 -152 165 -78 72 -308 232 -414 288 -135 71 -360 148 -580 198 -44 10 -116
28 -160 39 -44 12 -109 28 -145 36 -128 27 -207 47 -340 85 -74 21 -193 54
-265 73 -232 63 -351 111 -662 268 -253 128 -437 273 -579 455 -70 90 -167
184 -190 184 -8 0 -14 5 -14 10 0 15 -89 11 -136 -6z m431 -770 c69 -49 158
-108 198 -132 172 -102 512 -252 747 -329 121 -39 697 -192 810 -214 71 -14
328 -78 400 -100 395 -118 728 -370 980 -743 18 -26 59 -104 92 -173 l59 -124
5 -1042 c2 -573 1 -1066 -2 -1096 l-7 -54 -141 6 c-299 13 -564 79 -794 198
-106 55 -222 142 -222 167 0 4 64 7 143 7 187 1 412 47 494 100 36 24 31 76
-11 122 l-34 37 -98 -19 c-129 -26 -413 -26 -549 -1 -88 16 -210 48 -250 65
-95 41 -132 61 -215 115 -106 69 -217 167 -207 183 4 6 30 4 74 -7 106 -27
499 -24 618 4 162 39 186 49 218 84 23 25 16 51 -24 92 l-31 30 -226 0 c-493
1 -779 74 -1051 269 -148 106 -330 306 -304 332 8 8 17 8 31 0 24 -13 198 -55
312 -76 178 -33 446 -44 614 -25 94 11 120 23 141 63 11 22 11 31 -3 58 -26
52 -63 66 -197 79 -303 27 -500 71 -730 163 -228 91 -381 189 -528 340 -108
111 -183 215 -242 338 -57 119 -60 161 -8 106 31 -33 220 -131 348 -182 251
-98 377 -130 645 -160 155 -18 206 -16 245 9 47 31 25 106 -41 143 -12 6 -93
28 -180 48 -308 72 -473 141 -676 283 -210 146 -404 382 -483 587 -15 39 -32
79 -37 89 -34 64 -127 523 -112 547 4 7 25 -9 55 -43 26 -30 105 -95 174 -144z
m12855 55 c-30 -176 -74 -350 -114 -450 -37 -92 -124 -264 -159 -314 -92 -133
-249 -277 -420 -385 -116 -73 -419 -196 -552 -225 -39 -8 -100 -21 -137 -29
-78 -17 -121 -37 -142 -68 -23 -33 -20 -56 13 -89 27 -26 35 -29 98 -29 88 1
298 24 386 44 146 33 442 137 562 198 59 30 170 104 199 133 18 19 36 19 36 1
0 -25 -97 -208 -157 -298 -113 -167 -230 -278 -410 -386 -136 -83 -231 -124
-413 -180 -186 -58 -253 -71 -525 -97 -179 -18 -207 -26 -235 -65 -24 -34 -25
-52 -5 -90 21 -41 59 -49 265 -56 137 -5 205 -3 315 11 173 21 386 68 442 96
39 20 73 21 73 1 0 -12 -64 -97 -130 -172 -100 -115 -280 -246 -412 -301 -40
-16 -82 -34 -93 -40 -40 -19 -183 -50 -315 -69 -106 -15 -191 -20 -394 -20
-253 0 -260 -1 -283 -22 -30 -28 -32 -87 -4 -112 28 -25 167 -64 291 -82 133
-19 433 -18 490 2 22 8 57 17 80 20 32 5 40 3 40 -9 0 -45 -290 -246 -443
-307 -155 -62 -230 -73 -477 -74 -190 -1 -237 2 -302 18 -92 23 -116 16 -142
-39 -21 -45 -15 -79 20 -101 62 -41 378 -104 523 -104 50 0 91 -4 91 -8 0 -13
-99 -94 -156 -129 -238 -145 -516 -216 -874 -225 l-135 -3 0 1105 0 1105 94
155 c132 218 171 270 296 399 225 232 474 380 800 476 124 37 419 111 535 135
169 34 319 71 399 96 41 14 101 31 134 40 51 13 123 38 212 74 11 4 43 15 70
25 28 9 59 20 70 25 11 4 38 15 60 23 22 8 106 47 186 86 81 39 150 71 153 71
3 0 54 30 113 66 148 91 284 196 340 261 27 31 50 50 55 45 5 -5 0 -60 -12
-133z m-8960 -105 c41 -8 86 -19 100 -24 14 -5 88 -23 165 -40 159 -36 472
-113 650 -160 66 -17 167 -43 225 -57 58 -14 236 -57 395 -96 160 -38 315 -76
345 -83 30 -7 89 -22 130 -34 380 -107 374 -105 467 -86 84 19 386 90 443 106
19 5 73 19 120 31 47 12 117 31 155 41 39 10 162 41 275 68 113 27 257 63 320
79 63 15 171 41 240 56 240 52 273 60 660 157 139 35 253 59 263 55 17 -6 17
-115 15 -2411 -2 -1322 -6 -2408 -10 -2412 -4 -4 -101 18 -215 49 -252 68
-457 120 -578 146 -49 11 -178 41 -285 66 -217 52 -276 66 -500 119 -85 20
-177 42 -205 50 -54 16 -114 30 -415 101 -107 25 -230 54 -273 64 l-78 19
-112 -29 c-62 -16 -186 -47 -277 -70 -91 -22 -255 -62 -365 -89 -110 -27 -288
-70 -395 -95 -107 -25 -215 -52 -240 -59 -25 -7 -67 -18 -95 -25 -72 -16 -607
-146 -830 -201 -133 -34 -195 -45 -207 -39 -17 9 -18 51 -18 667 0 3826 0
4136 12 4149 6 8 18 11 27 8 9 -4 50 -13 91 -21z m5427 -436 c-3 -7 -5 -2 -5
12 0 14 2 19 5 13 2 -7 2 -19 0 -25z m-5990 -150 c-2 -29 -3 -6 -3 52 0 58 1
81 3 53 2 -29 2 -77 0 -105z m5990 -55 c-2 -27 -3 -5 -3 47 0 52 1 74 3 48 2
-27 2 -69 0 -95z m-6297 -607 c0 -3 -4 -8 -10 -11 -5 -3 -10 -1 -10 4 0 6 5
11 10 11 6 0 10 -2 10 -4z m707 -63 c-3 -10 -5 -2 -5 17 0 19 2 27 5 18 2 -10
2 -26 0 -35z m10 -175 c-2 -13 -4 -5 -4 17 -1 22 1 32 4 23 2 -10 2 -28 0 -40z
m8863 -268 c0 -5 -2 -10 -4 -10 -3 0 -8 5 -11 10 -3 6 -1 10 4 10 6 0 11 -4
11 -10z m-3283 -32 c-3 -8 -6 -5 -6 6 -1 11 2 17 5 13 3 -3 4 -12 1 -19z m0
-515 c-3 -10 -5 -2 -5 17 0 19 2 27 5 18 2 -10 2 -26 0 -35z m0 -130 c-2 -21
-4 -4 -4 37 0 41 2 58 4 38 2 -21 2 -55 0 -75z m-8877 33 c0 -3 -4 -8 -10 -11
-5 -3 -10 -1 -10 4 0 6 5 11 10 11 6 0 10 -2 10 -4z m60 -96 c0 -5 -2 -10 -4
-10 -3 0 -8 5 -11 10 -3 6 -1 10 4 10 6 0 11 -4 11 -10z m8817 -347 c-1 -65
-3 -14 -3 112 0 127 2 180 3 118 2 -62 2 -165 0 -230z m-419 50 c0 -98 -4
-196 -8 -218 -6 -26 -8 31 -8 160 1 181 4 235 13 235 2 0 4 -80 3 -177z
m-5571 -20 c-2 -37 -3 -9 -3 62 0 72 1 102 3 68 2 -34 2 -93 0 -130z m413 117
c0 -16 -4 -30 -8 -30 -5 0 -7 14 -4 30 2 17 6 30 8 30 2 0 4 -13 4 -30z m-125
-40 c-3 -5 -10 -10 -16 -10 -5 0 -9 5 -9 10 0 6 7 10 16 10 8 0 12 -4 9 -10z
m124 -67 c0 -45 -3 -60 -8 -43 -4 14 -6 41 -5 60 3 50 3 50 9 50 3 0 5 -30 4
-67z m-415 -311 c3 -89 8 -167 11 -172 3 -5 2 -34 -1 -64 -13 -113 -23 -39
-24 181 0 125 2 225 4 222 2 -2 7 -77 10 -167z m5993 11 c-3 -10 -5 -2 -5 17
0 19 2 27 5 18 2 -10 2 -26 0 -35z m-421 10 c-10 -10 -19 5 -10 18 6 11 8 11
12 0 2 -7 1 -15 -2 -18z m424 -163 c0 -13 -1 -13 -10 0 -5 8 -10 22 -10 30 0
13 1 13 10 0 5 -8 10 -22 10 -30z m0 -121 c0 -33 -4 -58 -8 -55 -8 5 -9 19 -4
91 4 49 12 24 12 -36z m-13 -91 c-3 -8 -6 -5 -6 6 -1 11 2 17 5 13 3 -3 4 -12
1 -19z m-7608 -153 c0 -5 -4 -3 -9 5 -5 8 -9 22 -9 30 0 16 17 -16 18 -35z
m1628 -57 c-3 -8 -6 -5 -6 6 -1 11 2 17 5 13 3 -3 4 -12 1 -19z m5990 -760
c-2 -13 -4 -5 -4 17 -1 22 1 32 4 23 2 -10 2 -28 0 -40z m-3587 -292 c0 -3 -4
-8 -10 -11 -5 -3 -10 -1 -10 4 0 6 5 11 10 11 6 0 10 -2 10 -4z"/>
</g>
</svg>
